<?xml version="1.0" encoding="UTF-8"?>
<svg xmlns="http://www.w3.org/2000/svg" xmlns:xlink="http://www.w3.org/1999/xlink" width="2400px" height="2400px" viewBox="0 0 2400 2400" version="1.1">
<g id="surface1">
<path style=" stroke:none;fill-rule:nonzero;fill:rgb(0%,0%,0%);fill-opacity:1;" d="M 1.640625 1.640625 C 0.703125 2.34375 0 542.34375 0 1201.640625 L 0 2400 L 2400 2400 L 2400 0 L 1201.640625 0 C 542.34375 0 2.34375 0.703125 1.640625 1.640625 Z M 1169.53125 530.625 L 1169.53125 568.828125 L 1151.484375 570.46875 C 1124.765625 572.8125 1076.484375 582.65625 1042.96875 592.265625 C 952.265625 618.28125 866.484375 667.96875 797.578125 734.53125 C 762.890625 767.8125 742.5 791.71875 717.890625 827.34375 C 653.90625 920.15625 619.453125 1020.9375 612.1875 1136.953125 L 610.546875 1163.671875 L 578.90625 1164.375 C 561.5625 1164.84375 541.640625 1164.375 534.609375 1163.671875 L 521.953125 1162.03125 L 523.59375 1134.84375 C 531.09375 1008.984375 567.65625 900.703125 637.265625 797.34375 C 755.859375 621.796875 936.796875 514.6875 1150.78125 493.828125 C 1171.875 491.71875 1169.53125 487.265625 1169.53125 530.625 Z M 1267.96875 495.703125 C 1356.328125 504.140625 1435.078125 528.28125 1520.859375 573.046875 C 1549.921875 588.046875 1605.234375 625.078125 1635.9375 649.921875 C 1668.28125 675.9375 1713.984375 723.046875 1741.640625 758.671875 C 1810.078125 847.265625 1862.109375 967.265625 1876.171875 1069.6875 C 1879.6875 1096.171875 1884.140625 1162.03125 1882.265625 1163.90625 C 1881.796875 1164.375 1862.109375 1164.84375 1838.671875 1164.84375 L 1796.25 1164.84375 L 1793.4375 1124.296875 C 1780.078125 936.09375 1675.546875 762.65625 1512.890625 659.296875 C 1486.171875 642.421875 1432.96875 616.40625 1401.5625 604.6875 C 1364.53125 591.09375 1310.15625 577.734375 1273.828125 573.046875 C 1257.1875 571.171875 1241.953125 568.828125 1240.546875 568.359375 C 1238.203125 567.65625 1237.5 558.046875 1237.5 531.328125 C 1237.5 511.40625 1238.203125 494.53125 1239.140625 493.59375 C 1240.078125 492.65625 1243.59375 492.421875 1246.875 493.125 C 1250.15625 493.828125 1259.53125 495 1267.96875 495.703125 Z M 1169.53125 732.890625 L 1169.53125 809.296875 L 1142.109375 807.890625 C 1107.65625 806.015625 1047.1875 798.515625 1012.96875 791.953125 L 1000.546875 789.375 L 1010.625 777.421875 C 1029.84375 753.984375 1065.46875 720.234375 1089.609375 703.125 C 1112.34375 686.953125 1163.4375 656.25 1167.65625 656.25 C 1168.59375 656.25 1169.53125 690.703125 1169.53125 732.890625 Z M 1267.734375 671.484375 C 1300.78125 688.828125 1331.484375 711.09375 1360.546875 738.75 C 1381.640625 758.90625 1403.90625 784.21875 1403.90625 788.203125 C 1403.90625 792.890625 1289.0625 808.59375 1254.375 808.59375 L 1240.546875 808.59375 L 1239.140625 785.625 C 1236.328125 746.25 1237.265625 658.59375 1240.078125 658.59375 C 1241.484375 658.59375 1253.90625 664.453125 1267.734375 671.484375 Z M 967.03125 721.875 C 953.4375 738.75 942.1875 753.28125 942.1875 754.21875 C 941.953125 755.15625 940.078125 758.4375 937.5 761.25 L 932.8125 766.875 L 916.40625 760.3125 C 907.265625 756.796875 899.0625 752.8125 898.359375 751.40625 C 896.484375 748.59375 907.03125 739.453125 930.46875 723.515625 C 948.28125 711.328125 989.53125 688.59375 990.9375 690.234375 C 991.40625 690.46875 980.625 704.765625 967.03125 721.875 Z M 1451.953125 707.578125 C 1480.546875 723.046875 1513.359375 747.890625 1510.78125 751.875 C 1510.078125 753.046875 1501.875 756.796875 1492.734375 760.546875 L 1475.625 767.109375 L 1472.109375 761.484375 C 1466.015625 752.34375 1436.25 713.90625 1425.234375 701.015625 L 1414.921875 688.828125 L 1424.0625 693.046875 C 1428.984375 695.390625 1441.640625 701.953125 1451.953125 707.578125 Z M 855.234375 819.140625 C 870 825.234375 885.46875 830.625 889.921875 831.328125 C 894.140625 832.03125 897.65625 832.96875 897.65625 833.671875 C 897.65625 834.140625 892.96875 843.75 887.34375 855 C 864.140625 901.40625 840 979.21875 831.09375 1035.9375 C 827.578125 1058.4375 823.125 1102.03125 821.953125 1123.828125 L 821.484375 1135.546875 L 754.921875 1136.25 L 688.359375 1136.71875 L 690 1113.984375 C 697.03125 1018.125 736.40625 917.109375 798.28125 835.546875 C 814.6875 813.75 822.65625 805.78125 825.9375 807.1875 C 827.34375 807.890625 840.46875 813.28125 855.234375 819.140625 Z M 1602.1875 826.875 C 1666.875 908.203125 1713.28125 1026.09375 1716.09375 1116.796875 L 1716.796875 1135.546875 L 1651.875 1136.25 L 1587.1875 1136.71875 L 1585.78125 1118.671875 C 1581.796875 1065.234375 1578.984375 1042.265625 1572.65625 1012.265625 C 1560.46875 954.84375 1546.40625 911.484375 1523.4375 859.6875 L 1512.1875 834.609375 L 1529.0625 828.75 C 1538.203125 825.46875 1554.140625 819.609375 1564.453125 815.859375 C 1574.765625 812.109375 1584.375 808.828125 1585.546875 808.828125 C 1586.953125 808.828125 1594.453125 817.03125 1602.1875 826.875 Z M 987.890625 857.578125 C 1020.46875 863.90625 1078.828125 871.171875 1125.46875 874.453125 C 1147.03125 876.09375 1164.140625 878.203125 1163.671875 878.90625 C 1162.96875 879.84375 1158.515625 881.25 1153.359375 882.1875 C 1148.4375 882.890625 1133.203125 888.984375 1119.84375 895.78125 C 1099.21875 906.09375 1092.65625 911.015625 1074.375 929.296875 C 1056.09375 947.34375 1051.40625 953.90625 1042.265625 972.65625 C 1026.09375 1006.171875 1023.75 1016.71875 1022.578125 1065.9375 L 1021.40625 1108.828125 L 1013.4375 1120.78125 C 1008.984375 1127.109375 1005.46875 1133.4375 1005.46875 1134.609375 C 1005.46875 1135.78125 981.328125 1136.71875 950.390625 1136.71875 C 901.40625 1136.71875 895.078125 1136.25 893.671875 1132.96875 C 891.796875 1127.8125 896.953125 1065.234375 901.40625 1039.453125 C 910.078125 990 930.9375 922.734375 950.859375 880.546875 C 958.125 865.546875 964.21875 853.125 964.21875 853.125 C 964.453125 853.125 975 855.234375 987.890625 857.578125 Z M 1455 873.515625 C 1474.21875 914.53125 1493.203125 972.65625 1503.28125 1023.046875 C 1508.4375 1048.828125 1514.0625 1099.21875 1514.0625 1119.609375 L 1514.0625 1136.71875 L 1399.921875 1136.71875 L 1390.078125 1121.71875 L 1380.46875 1106.71875 L 1380.46875 1070.390625 C 1380.46875 1048.828125 1379.0625 1027.03125 1377.1875 1016.71875 C 1367.109375 964.21875 1333.125 919.921875 1283.671875 895.078125 C 1270.78125 888.75 1256.25 882.890625 1251.328125 882.1875 C 1246.171875 881.25 1241.71875 879.84375 1241.015625 879.140625 C 1240.546875 878.203125 1258.828125 876.09375 1281.5625 874.453125 C 1330.078125 870.9375 1383.984375 864.375 1415.625 858.046875 C 1427.8125 855.703125 1439.53125 853.59375 1441.640625 853.359375 C 1443.984375 853.125 1448.671875 859.921875 1455 873.515625 Z M 1234.921875 922.265625 C 1283.90625 933.984375 1324.921875 974.765625 1334.765625 1021.171875 C 1337.109375 1031.953125 1338.28125 1052.109375 1338.28125 1082.34375 L 1338.28125 1127.8125 L 1347.65625 1138.359375 C 1352.578125 1144.21875 1359.375 1154.765625 1362.1875 1162.265625 C 1367.34375 1174.921875 1367.578125 1178.671875 1368.28125 1252.734375 C 1369.21875 1335.46875 1368.046875 1346.71875 1357.734375 1367.109375 C 1345.78125 1390.78125 1323.28125 1407.421875 1295.15625 1413.28125 C 1286.953125 1414.921875 1252.5 1415.625 1193.90625 1415.15625 C 1106.25 1414.453125 1104.84375 1414.453125 1091.015625 1408.828125 C 1071.328125 1400.859375 1047.890625 1377.421875 1040.859375 1358.671875 C 1036.171875 1345.78125 1035.9375 1340.625 1035.234375 1261.40625 C 1034.765625 1178.4375 1034.765625 1177.734375 1040.390625 1164.140625 C 1043.4375 1156.40625 1050.46875 1144.6875 1056.09375 1137.65625 L 1066.40625 1125 L 1066.40625 1075.78125 C 1066.40625 1031.953125 1066.875 1024.6875 1071.328125 1011.796875 C 1078.359375 991.171875 1089.609375 973.59375 1106.71875 956.953125 C 1139.765625 925.546875 1190.15625 911.71875 1234.921875 922.265625 Z M 823.59375 1214.53125 C 834.609375 1306.875 851.71875 1371.796875 884.53125 1445.859375 C 890.390625 1459.453125 895.078125 1470.703125 894.609375 1470.9375 C 894.375 1471.171875 880.546875 1475.859375 863.671875 1481.25 C 847.03125 1486.640625 830.859375 1492.5 828.28125 1494.140625 C 823.359375 1497.1875 822.1875 1496.015625 803.671875 1472.8125 C 774.84375 1436.71875 758.671875 1411.640625 739.21875 1372.265625 C 715.546875 1324.21875 697.03125 1264.6875 690.234375 1215.703125 L 688.828125 1204.6875 L 822.421875 1204.6875 Z M 993.75 1275.46875 C 993.75 1353.046875 994.6875 1360.078125 1007.578125 1386.328125 C 1014.84375 1400.625 1031.25 1420.078125 1044.140625 1428.984375 C 1047.890625 1431.796875 1050.703125 1434.609375 1050 1435.078125 C 1048.59375 1436.484375 972.890625 1450.78125 967.03125 1450.78125 C 961.40625 1450.78125 942.1875 1409.296875 928.125 1366.40625 C 910.078125 1312.265625 903.515625 1282.265625 894.375 1212.1875 L 893.203125 1204.6875 L 993.75 1204.6875 Z M 1513.125 1218.046875 C 1505.390625 1283.4375 1486.171875 1355.390625 1457.8125 1423.125 C 1446.09375 1450.78125 1444.921875 1452.890625 1439.765625 1451.71875 C 1436.953125 1450.78125 1415.15625 1446.796875 1391.71875 1442.8125 L 1349.0625 1435.3125 L 1359.84375 1427.8125 C 1382.8125 1412.109375 1403.203125 1379.765625 1408.359375 1351.40625 C 1409.765625 1343.671875 1410.9375 1308.046875 1410.9375 1271.015625 L 1410.9375 1204.6875 L 1514.53125 1204.6875 Z M 1716.796875 1209.84375 C 1716.328125 1212.890625 1713.515625 1227.890625 1710.9375 1243.125 C 1701.5625 1296.5625 1672.265625 1372.03125 1640.859375 1422.421875 C 1629.140625 1441.640625 1602.1875 1477.96875 1590.234375 1491.328125 L 1584.375 1497.890625 L 1575.703125 1493.203125 C 1570.78125 1490.859375 1554.375 1485 1539.375 1480.3125 L 1512.1875 1471.640625 L 1522.734375 1448.90625 C 1549.453125 1391.015625 1578.515625 1283.90625 1583.4375 1223.4375 L 1585.078125 1204.6875 L 1717.96875 1204.6875 Z M 578.671875 1251.5625 C 601.875 1263.28125 609.140625 1292.578125 594.375 1314.84375 C 571.640625 1349.296875 514.921875 1333.828125 514.921875 1293.046875 C 514.921875 1280.15625 521.015625 1265.15625 528.75 1258.359375 C 542.578125 1246.171875 562.96875 1243.359375 578.671875 1251.5625 Z M 1867.5 1251.328125 C 1878.28125 1256.71875 1883.203125 1262.109375 1887.890625 1273.359375 C 1896.5625 1294.453125 1887.421875 1320 1866.796875 1330.546875 C 1857.1875 1335.703125 1837.265625 1335.234375 1827.890625 1329.84375 C 1802.34375 1314.84375 1796.953125 1280.859375 1817.109375 1260.703125 C 1831.171875 1246.640625 1851.09375 1242.890625 1867.5 1251.328125 Z M 626.25 1426.40625 C 634.453125 1430.625 644.53125 1447.96875 644.53125 1457.8125 C 644.53125 1467.890625 636.796875 1483.59375 628.828125 1489.21875 C 621.09375 1494.84375 602.34375 1496.953125 592.96875 1492.96875 C 577.03125 1486.40625 566.71875 1465.078125 571.40625 1448.90625 C 574.6875 1438.125 586.40625 1425.703125 596.25 1422.890625 C 604.6875 1420.3125 617.109375 1421.71875 626.25 1426.40625 Z M 1820.390625 1427.578125 C 1827.890625 1432.265625 1837.5 1448.4375 1837.5 1456.40625 C 1837.5 1466.015625 1831.640625 1479.140625 1824.375 1486.171875 C 1818.28125 1492.03125 1814.0625 1493.90625 1804.921875 1494.84375 C 1798.59375 1495.3125 1790.625 1495.3125 1787.34375 1494.375 C 1777.03125 1491.796875 1765.546875 1479.84375 1762.734375 1468.828125 C 1754.53125 1435.3125 1790.859375 1409.53125 1820.390625 1427.578125 Z M 1169.53125 1571.71875 L 1169.53125 1645.546875 L 1164.375 1643.90625 C 1146.328125 1638.515625 1103.90625 1612.734375 1072.03125 1587.890625 C 1053.984375 1573.59375 1010.15625 1529.53125 1005.46875 1520.859375 C 1003.359375 1517.34375 1004.765625 1516.40625 1015.546875 1514.296875 C 1050.234375 1507.265625 1122.65625 1499.0625 1158.515625 1497.890625 L 1169.53125 1497.65625 Z M 1283.671875 1500 C 1313.203125 1502.578125 1384.6875 1512.421875 1397.578125 1515.9375 L 1404.375 1517.8125 L 1387.03125 1537.5 C 1362.421875 1565.390625 1321.171875 1600.78125 1290.234375 1620 C 1276.171875 1628.90625 1243.828125 1645.3125 1240.78125 1645.3125 C 1238.90625 1645.3125 1237.96875 1625.625 1237.734375 1571.484375 L 1237.265625 1497.65625 L 1245.46875 1497.65625 C 1249.921875 1497.65625 1267.265625 1498.828125 1283.671875 1500 Z M 752.34375 1519.6875 C 761.015625 1522.265625 768.28125 1528.359375 791.015625 1551.5625 C 843.515625 1605.234375 893.671875 1642.265625 952.734375 1671.09375 C 1007.578125 1698.046875 1055.859375 1713.984375 1114.453125 1724.296875 C 1148.203125 1730.15625 1256.953125 1730.15625 1289.0625 1724.0625 C 1346.015625 1713.515625 1402.96875 1695 1451.953125 1671.09375 C 1515.234375 1640.390625 1566.09375 1601.953125 1623.75 1541.953125 C 1639.6875 1525.3125 1645.078125 1521.09375 1653.515625 1518.984375 C 1711.640625 1504.453125 1772.8125 1549.453125 1777.96875 1610.390625 C 1781.015625 1646.484375 1767.421875 1672.96875 1721.484375 1720.078125 C 1661.25 1781.953125 1607.34375 1821.328125 1528.828125 1860.703125 C 1454.53125 1897.734375 1387.5 1919.53125 1308.984375 1931.71875 C 1264.21875 1938.75 1148.203125 1939.453125 1106.25 1932.890625 C 1005.703125 1917.421875 925.3125 1889.296875 834.375 1838.203125 C 781.640625 1808.4375 734.53125 1770.9375 686.015625 1720.3125 C 643.59375 1676.015625 628.125 1648.59375 628.125 1617.421875 C 628.125 1575.9375 660.46875 1532.34375 700.3125 1520.15625 C 714.375 1515.703125 738.984375 1515.46875 752.34375 1519.6875 Z M 944.53125 1556.71875 C 952.734375 1567.5 965.390625 1582.265625 972.421875 1589.53125 C 979.453125 1597.03125 984.140625 1603.125 983.203125 1603.125 C 976.875 1603.125 893.4375 1552.5 895.78125 1550.15625 C 896.484375 1549.6875 903.984375 1546.640625 913.125 1543.59375 C 922.03125 1540.546875 929.296875 1537.96875 929.53125 1537.734375 C 929.53125 1537.5 936.328125 1546.171875 944.53125 1556.71875 Z M 1492.734375 1543.59375 C 1501.875 1547.109375 1509.375 1550.390625 1509.375 1551.328125 C 1509.140625 1555.78125 1428.984375 1605.46875 1421.953125 1605.46875 C 1420.78125 1605.46875 1425.9375 1598.90625 1433.203125 1590.703125 C 1440.46875 1582.734375 1452.890625 1567.5 1460.859375 1556.953125 C 1468.828125 1546.40625 1475.625 1537.734375 1475.859375 1537.5 C 1476.09375 1537.5 1483.828125 1540.3125 1492.734375 1543.59375 Z M 1492.734375 1543.59375 "/>
<path style=" stroke:none;fill-rule:nonzero;fill:rgb(0%,0%,0%);fill-opacity:1;" d="M 1180.546875 958.828125 C 1153.125 965.15625 1124.296875 988.125 1112.578125 1012.734375 C 1104.609375 1029.84375 1101.5625 1049.296875 1101.5625 1085.390625 L 1101.5625 1114.921875 L 1121.015625 1116.328125 C 1131.5625 1117.265625 1176.328125 1117.96875 1220.625 1117.96875 L 1301.25 1117.96875 L 1300.3125 1072.734375 C 1299.609375 1028.4375 1299.609375 1027.5 1292.8125 1013.671875 C 1272.65625 972.65625 1223.4375 948.75 1180.546875 958.828125 Z M 1224.609375 1005.234375 C 1245.703125 1014.84375 1257.1875 1033.359375 1257.421875 1058.203125 L 1257.421875 1074.609375 L 1201.875 1075.3125 L 1146.09375 1075.78125 L 1146.09375 1062.65625 C 1146.09375 1055.390625 1147.265625 1045.3125 1148.90625 1040.15625 C 1152.1875 1028.90625 1167.1875 1011.5625 1178.671875 1005.46875 C 1189.921875 999.609375 1211.953125 999.375 1224.609375 1005.234375 Z M 1224.609375 1005.234375 "/>
<path style=" stroke:none;fill-rule:nonzero;fill:rgb(0%,0%,0%);fill-opacity:1;" d="M 1127.34375 1155.234375 C 1097.109375 1156.875 1087.734375 1160.625 1079.296875 1174.6875 C 1074.84375 1181.953125 1074.609375 1187.34375 1073.90625 1256.25 C 1072.96875 1341.09375 1073.671875 1345.78125 1088.90625 1361.015625 C 1105.3125 1377.1875 1110.9375 1378.125 1203.515625 1378.125 C 1292.578125 1378.125 1297.03125 1377.421875 1314.375 1362.65625 C 1331.484375 1348.125 1332.421875 1342.734375 1332.1875 1262.109375 C 1331.953125 1214.53125 1331.015625 1188.984375 1329.140625 1183.359375 C 1325.15625 1171.171875 1311.796875 1158.75 1299.609375 1155.703125 C 1288.828125 1153.125 1178.203125 1152.65625 1127.34375 1155.234375 Z M 1220.625 1211.71875 C 1231.40625 1218.28125 1237.5 1229.53125 1237.5 1243.125 C 1237.5 1253.203125 1236.5625 1255.546875 1227.890625 1263.984375 L 1218.28125 1273.828125 L 1220.859375 1294.921875 C 1222.5 1306.40625 1224.140625 1318.828125 1224.84375 1322.34375 L 1226.25 1328.90625 L 1201.171875 1328.90625 C 1178.203125 1328.90625 1176.09375 1328.4375 1177.734375 1324.921875 C 1178.4375 1322.578125 1181.015625 1310.625 1183.125 1298.4375 L 1186.875 1275.9375 L 1177.03125 1266.09375 C 1162.734375 1251.796875 1161.09375 1236.5625 1172.109375 1222.265625 C 1184.296875 1207.03125 1205.15625 1202.34375 1220.625 1211.71875 Z M 1220.625 1211.71875 "/>
<path style=" stroke:none;fill-rule:nonzero;fill:rgb(0%,0%,0%);fill-opacity:1;" d="M 1573.828125 1638.515625 C 1558.359375 1652.578125 1545.46875 1665 1545 1666.171875 C 1544.765625 1667.34375 1563.515625 1687.265625 1586.953125 1710.703125 L 1629.609375 1753.125 L 1640.390625 1744.21875 C 1658.671875 1729.453125 1689.84375 1698.75 1689.84375 1695.46875 C 1689.84375 1693.828125 1685.625 1689.140625 1680.46875 1685.15625 L 1671.09375 1677.65625 L 1653.28125 1694.296875 C 1643.4375 1703.4375 1634.53125 1710.9375 1633.59375 1710.9375 C 1632.65625 1710.9375 1630.078125 1708.359375 1627.96875 1705.078125 C 1623.984375 1698.984375 1624.21875 1698.984375 1638.75 1683.75 L 1653.515625 1668.28125 L 1643.203125 1658.90625 L 1632.65625 1649.765625 L 1601.71875 1683.515625 L 1594.6875 1674.84375 L 1587.421875 1666.171875 L 1623.984375 1630.078125 L 1612.96875 1621.640625 L 1601.953125 1612.96875 Z M 1573.828125 1638.515625 "/>
<path style=" stroke:none;fill-rule:nonzero;fill:rgb(0%,0%,0%);fill-opacity:1;" d="M 776.484375 1631.25 C 758.4375 1642.03125 757.5 1662.1875 773.671875 1691.25 C 783.984375 1710 784.21875 1715.625 774.84375 1715.625 C 765.703125 1715.625 753.28125 1702.96875 748.828125 1689.84375 C 745.3125 1679.0625 744.375 1678.125 738.75 1679.53125 C 726.5625 1682.34375 720.703125 1686.328125 721.40625 1691.015625 C 723.28125 1701.5625 734.296875 1720.546875 743.203125 1728.515625 C 755.390625 1739.296875 765.703125 1743.75 779.296875 1743.75 C 793.125 1743.75 802.03125 1739.0625 808.59375 1728.515625 C 816.09375 1716.328125 814.21875 1703.90625 800.859375 1681.40625 C 791.953125 1666.640625 790.546875 1662.65625 792.421875 1658.671875 C 794.53125 1655.15625 796.640625 1654.453125 803.203125 1655.390625 C 814.21875 1657.265625 817.03125 1660.078125 821.484375 1673.671875 C 823.59375 1680.234375 826.875 1685.15625 828.75 1685.15625 C 831.328125 1685.15625 850.3125 1678.59375 852.65625 1676.71875 C 854.296875 1675.546875 840.9375 1651.875 834.375 1644.375 C 819.375 1627.5 792.421875 1621.40625 776.484375 1631.25 Z M 776.484375 1631.25 "/>
<path style=" stroke:none;fill-rule:nonzero;fill:rgb(0%,0%,0%);fill-opacity:1;" d="M 1515.9375 1681.640625 C 1509.609375 1686.328125 1504.6875 1691.015625 1504.6875 1692.421875 C 1504.6875 1693.828125 1508.4375 1712.34375 1513.125 1733.671875 C 1517.578125 1755 1521.09375 1773.28125 1520.625 1774.21875 C 1519.921875 1776.328125 1499.296875 1759.453125 1472.34375 1734.140625 C 1462.734375 1725.234375 1454.0625 1717.96875 1452.65625 1717.96875 C 1448.90625 1717.96875 1422.65625 1730.15625 1422.65625 1731.796875 C 1422.890625 1732.5 1426.875 1736.25 1431.796875 1740.234375 C 1436.71875 1743.984375 1456.171875 1760.390625 1475.15625 1776.5625 C 1494.140625 1792.734375 1513.125 1808.671875 1517.578125 1812.1875 L 1525.078125 1818.75 L 1539.609375 1810.078125 L 1553.90625 1801.640625 L 1552.5 1789.6875 C 1548.515625 1754.296875 1532.34375 1675.3125 1529.0625 1674.140625 C 1527.890625 1673.90625 1522.03125 1677.1875 1515.9375 1681.640625 Z M 1515.9375 1681.640625 "/>
<path style=" stroke:none;fill-rule:nonzero;fill:rgb(0%,0%,0%);fill-opacity:1;" d="M 881.25 1715.625 C 867.65625 1725.9375 844.921875 1743.046875 830.390625 1753.59375 L 804.140625 1772.8125 L 818.203125 1783.125 L 832.265625 1793.671875 L 841.171875 1785 L 849.84375 1776.5625 L 869.765625 1788.28125 C 880.546875 1794.609375 890.390625 1800 891.5625 1800 C 892.734375 1800 892.96875 1805.625 892.5 1812.1875 L 891.09375 1824.609375 L 906.09375 1831.40625 C 914.53125 1835.15625 921.5625 1837.734375 922.03125 1837.265625 C 922.734375 1836.328125 930.46875 1724.0625 930.46875 1713.984375 C 930.46875 1710.703125 927.1875 1707.1875 920.15625 1702.96875 C 914.296875 1699.6875 908.90625 1696.875 907.734375 1696.875 C 906.796875 1696.875 894.84375 1705.3125 881.25 1715.625 Z M 901.40625 1747.734375 C 897.1875 1777.96875 898.359375 1776.796875 881.25 1766.015625 C 871.875 1759.921875 871.640625 1759.6875 875.625 1755.9375 C 885.9375 1746.5625 898.828125 1736.71875 900.703125 1736.71875 C 901.875 1736.71875 902.109375 1741.640625 901.40625 1747.734375 Z M 901.40625 1747.734375 "/>
<path style=" stroke:none;fill-rule:nonzero;fill:rgb(0%,0%,0%);fill-opacity:1;" d="M 986.484375 1740.703125 C 984.140625 1747.265625 960 1834.453125 957.65625 1845.9375 C 956.015625 1852.734375 956.484375 1853.203125 969.375 1857.1875 C 976.640625 1859.53125 983.4375 1860.46875 984.375 1859.296875 C 985.3125 1858.359375 988.59375 1849.21875 991.40625 1839.140625 C 994.453125 1828.59375 997.96875 1821.09375 999.84375 1821.09375 C 1002.65625 1821.09375 1030.78125 1827.1875 1038.515625 1829.53125 C 1041.5625 1830.234375 1042.96875 1827.890625 1044.84375 1818.28125 C 1046.015625 1811.484375 1046.953125 1805.859375 1046.953125 1805.625 C 1046.71875 1805.625 1037.578125 1803.28125 1026.5625 1800.234375 C 1015.78125 1797.421875 1006.40625 1794.609375 1005.9375 1794.140625 C 1003.828125 1792.03125 1010.859375 1771.640625 1013.4375 1772.578125 C 1023.984375 1776.5625 1062.421875 1783.828125 1064.0625 1782.1875 C 1065.234375 1781.015625 1066.40625 1775.390625 1066.875 1769.765625 L 1067.578125 1759.6875 L 988.828125 1734.84375 Z M 986.484375 1740.703125 "/>
<path style=" stroke:none;fill-rule:nonzero;fill:rgb(0%,0%,0%);fill-opacity:1;" d="M 1373.203125 1746.328125 L 1360.3125 1750.78125 L 1356.328125 1784.296875 C 1354.21875 1802.578125 1350.703125 1832.109375 1348.828125 1849.921875 C 1346.71875 1867.734375 1345.3125 1882.734375 1345.78125 1883.4375 C 1346.25 1883.90625 1353.515625 1882.5 1361.953125 1880.15625 L 1376.953125 1876.171875 L 1378.125 1863.984375 C 1378.828125 1857.421875 1380 1851.328125 1380.46875 1850.859375 C 1382.34375 1848.984375 1420.3125 1837.5 1424.53125 1837.5 C 1426.640625 1837.5 1432.265625 1841.484375 1437.1875 1846.171875 L 1446.09375 1854.84375 L 1457.8125 1849.21875 C 1464.375 1846.171875 1470.46875 1842.65625 1471.171875 1841.71875 C 1471.640625 1840.546875 1467.1875 1833.515625 1460.859375 1826.25 C 1449.609375 1812.890625 1393.828125 1749.609375 1388.90625 1744.6875 C 1387.03125 1742.578125 1383.046875 1743.046875 1373.203125 1746.328125 Z M 1400.15625 1800.703125 C 1406.484375 1808.203125 1411.171875 1814.53125 1410.703125 1815 C 1409.0625 1816.40625 1386.5625 1823.4375 1383.984375 1823.4375 C 1382.109375 1823.4375 1381.640625 1818.75 1382.109375 1808.671875 C 1383.28125 1790.390625 1384.921875 1782.421875 1387.265625 1785 C 1388.203125 1786.171875 1394.0625 1793.203125 1400.15625 1800.703125 Z M 1400.15625 1800.703125 "/>
<path style=" stroke:none;fill-rule:nonzero;fill:rgb(0%,0%,0%);fill-opacity:1;" d="M 1094.53125 1766.484375 C 1094.53125 1767.65625 1091.25 1795.078125 1087.5 1827.890625 C 1083.515625 1860.703125 1080.703125 1887.65625 1080.9375 1888.125 C 1081.875 1888.59375 1123.125 1892.8125 1150.3125 1894.921875 L 1169.53125 1896.5625 L 1169.53125 1887.65625 C 1169.53125 1882.5 1170.234375 1876.171875 1170.9375 1873.59375 C 1172.34375 1868.671875 1171.40625 1868.4375 1149.140625 1866.796875 C 1117.265625 1864.6875 1117.96875 1864.921875 1117.96875 1852.5 L 1117.96875 1841.71875 L 1139.765625 1843.359375 C 1151.484375 1844.296875 1162.5 1845.234375 1163.671875 1845.46875 C 1165.078125 1845.46875 1166.25 1840.3125 1166.71875 1833.75 L 1167.421875 1821.5625 L 1152.65625 1820.15625 C 1117.734375 1816.40625 1118.90625 1817.109375 1121.71875 1802.8125 L 1123.125 1795.78125 L 1149.84375 1796.953125 L 1176.5625 1798.359375 L 1176.5625 1772.8125 L 1139.765625 1768.828125 C 1098.28125 1764.375 1094.53125 1764.140625 1094.53125 1766.484375 Z M 1094.53125 1766.484375 "/>
<path style=" stroke:none;fill-rule:nonzero;fill:rgb(0%,0%,0%);fill-opacity:1;" d="M 1238.671875 1773.75 C 1227.1875 1779.375 1221.5625 1785.234375 1217.578125 1796.953125 C 1213.828125 1807.5 1215.234375 1817.34375 1221.5625 1826.484375 C 1227.65625 1835.15625 1236.328125 1839.140625 1255.078125 1842.1875 C 1275 1845.46875 1279.6875 1847.8125 1279.6875 1855.078125 C 1279.6875 1866.09375 1262.578125 1868.90625 1244.765625 1860.703125 L 1234.21875 1856.015625 L 1223.671875 1866.796875 C 1211.484375 1878.984375 1211.015625 1878.28125 1235.15625 1888.59375 C 1259.0625 1899.140625 1291.640625 1893.046875 1304.765625 1875.9375 C 1321.875 1853.203125 1308.75 1824.84375 1278.046875 1818.75 C 1251.09375 1813.359375 1246.875 1811.71875 1246.875 1807.03125 C 1246.875 1801.40625 1255.546875 1795.3125 1263.28125 1795.3125 C 1266.5625 1795.3125 1272.65625 1797.421875 1277.109375 1800.234375 C 1281.328125 1802.8125 1285.078125 1804.6875 1285.3125 1804.21875 C 1285.546875 1803.75 1289.296875 1799.0625 1293.515625 1793.671875 C 1297.734375 1788.046875 1300.546875 1782.65625 1299.609375 1781.25 C 1296.5625 1776.5625 1280.625 1771.40625 1264.453125 1770.46875 C 1251.5625 1769.53125 1246.171875 1770.234375 1238.671875 1773.75 Z M 1238.671875 1773.75 "/>
</g>
</svg>
